<svg xmlns="http://www.w3.org/2000/svg" viewBox="0 0 512 512"><path d="M512 256c0-14.079-4.523-25.052-10.364-33.341-9.631-13.682-11.544-31.477-5.281-46.997 4.598-11.395 4.411-25.301-10.451-38.957-34.074-31.303-104.309 10.401-138.395 34.086-11.631 8.09-19.05 14.079-19.41 14.365-32.247-11.718-64.506-15.583-96.753-11.569v.012c8.4 6.586-51.123 54.466-56.143 40.61 2.15-9.68 5.045-19.373 8.699-29.053-1.404-1.131-112.113-90.428-157.805-48.451-14.875 13.657-15.049 27.562-10.463 38.957 6.263 15.521 4.362 33.316-5.281 46.997C4.511 230.948 0 241.921 0 256s4.511 25.052 10.351 33.341c9.643 13.682 11.544 31.477 5.281 46.997-4.585 11.395-4.411 25.301 10.463 38.957 45.693 41.977 156.401-47.32 157.805-48.451 48.066 17.472 96.132 17.472 144.198 0 .36.286 7.779 6.275 19.41 14.365 34.086 23.685 104.321 65.389 138.395 34.086 14.862-13.657 15.049-27.562 10.451-38.957-6.263-15.521-4.349-33.316 5.281-46.997C507.477 281.052 512 270.079 512 256z" fill="#f7b239"/><path d="M210.618 204.476a308.568 308.568 0 0 1 6.592-28.61c-11.103 2.17-22.204 5.25-33.309 9.29-3.653 9.68-6.549 19.373-8.699 29.053-8.338 37.541-5.443 75.081 8.699 112.635 11.109 4.039 22.217 7.13 33.327 9.303-12.304-43.9-14.516-87.786-6.61-131.671z" fill="#e09b2d"/><g fill="#f95428"><circle cx="90.726" cy="201.41" r="32.309"/><path d="M119.929 282.183c11.321 0 20.504 9.171 20.504 20.504 0 11.321-9.183 20.504-20.504 20.504s-20.504-9.183-20.504-20.504c0-11.333 9.183-20.504 20.504-20.504zm151.791-26.332c11.321 0 20.504 9.183 20.504 20.504 0 11.321-9.183 20.504-20.504 20.504-11.333 0-20.504-9.183-20.504-20.504 0-11.321 9.171-20.504 20.504-20.504zm-26.581-53.907c0 19.895-16.13 36.037-36.037 36.037a34.72 34.72 0 0 1-2.547-.087c-14.477-1.019-26.605-10.587-31.352-23.685 2.15-9.68 5.045-19.373 8.699-29.053a230.566 230.566 0 0 1 10.846-3.631c.498-.154.995-.301 1.494-.451a225.714 225.714 0 0 1 5.906-1.694c.247-.067.495-.138.741-.204a213.964 213.964 0 0 1 14.308-3.312l.021-.005a205.24 205.24 0 0 1 14.129-2.274v.012c8.399 6.588 13.792 16.84 13.792 28.347zm184.075-30.097c11.321 0 20.504 9.183 20.504 20.504 0 11.333-9.183 20.504-20.504 20.504-11.333 0-20.504-9.171-20.504-20.504 0-11.321 9.171-20.504 20.504-20.504z"/></g><path d="M217.217 175.861a305.607 305.607 0 0 0-6.599 28.618 288.57 288.57 0 0 0-4.063 33.415c-14.477-1.019-26.605-10.587-31.352-23.685 2.15-9.68 5.045-19.373 8.699-29.053 1.392-.509 2.771-.994 4.163-1.466a220.069 220.069 0 0 1 29.152-7.829z" fill="#e54728"/><circle cx="399.676" cy="294.199" r="32.309" fill="#f95428"/><path d="M347.509 170.791c-11.631 8.09-19.05 14.079-19.41 14.365 17.782 47.233 17.782 94.454 0 141.688.36.286 7.779 6.275 19.41 14.365 16.751-56.814 16.751-113.604 0-170.418z" fill="#e09b2d"/></svg>