<svg xmlns="http://www.w3.org/2000/svg" width="436" height="436" viewBox="0 0 436 436"><path d="M404.117 118.039c-21.243-27.716-49.766-42.979-80.312-42.979-30.541 0-59.061 15.264-80.305 42.98-11.413 14.892-20.114 32.738-25.502 52.174-5.388-19.437-14.089-37.283-25.502-52.175-21.244-27.716-49.764-42.979-80.305-42.979-30.546 0-59.067 15.264-80.312 42.98C11.322 144.87 0 180.371 0 218.002c0 37.627 11.322 73.127 31.882 99.961 21.242 27.714 49.764 42.977 80.312 42.977 30.543 0 59.063-15.263 80.305-42.977 11.413-14.891 20.114-32.738 25.502-52.174 5.388 19.436 14.089 37.283 25.502 52.174 21.242 27.714 49.762 42.977 80.305 42.977 30.549 0 59.069-15.263 80.312-42.977C424.678 291.132 436 255.63 436 218.001c0-37.631-11.322-73.132-31.883-99.962zm-80.31 220.37c-49.437 0-89.656-54.015-89.656-120.407 0-9.056 8.523-18.567 23.386-26.097 17.516-8.87 41.051-13.755 66.271-13.755 25.225 0 48.763 4.885 66.277 13.755 14.861 7.53 23.385 17.042 23.385 26.097-.001 66.394-40.224 120.407-89.663 120.407zm0-240.816c37.316 0 71.053 31.883 84.025 78.446a102.498 102.498 0 0 0-7.567-4.235c-20.611-10.439-47.766-16.189-76.458-16.189-28.688 0-55.84 5.75-76.451 16.189a102.04 102.04 0 0 0-7.572 4.236c12.97-46.562 46.705-78.447 84.023-78.447zM112.193 338.409c-49.439 0-89.662-54.015-89.662-120.407 0-9.056 8.523-18.567 23.385-26.097 17.516-8.87 41.054-13.755 66.277-13.755 25.221 0 48.756 4.885 66.271 13.755 14.861 7.53 23.385 17.042 23.385 26.097.001 66.394-40.219 120.407-89.656 120.407zm0-240.816c37.317 0 71.053 31.884 84.024 78.448a102.652 102.652 0 0 0-7.572-4.236c-20.612-10.439-47.764-16.189-76.452-16.189-28.692 0-55.846 5.75-76.458 16.189a102.158 102.158 0 0 0-7.568 4.235c12.975-46.563 46.711-78.447 84.026-78.447z"/><path d="M112.523 234.667c-22.092 0-40 17.908-40 40s17.908 40 40 40c.715 0 1.426-.021 2.131-.059-1.715-.945-2.959-2.3-3.465-4.004-1.412-4.762 3.406-10.389 10.764-12.572 7.355-2.183 14.465-.095 15.879 4.666.273.922.307 1.874.141 2.828 8.887-7.337 14.551-18.438 14.551-30.859-.001-22.092-17.909-40-40.001-40zm-8.068 27.203c-7.357 2.185-14.467.096-15.879-4.664-1.412-4.762 3.406-10.391 10.764-12.574 7.355-2.184 14.465-.094 15.877 4.666 1.414 4.762-3.404 10.39-10.762 12.572zm219.022-27.203c-22.092 0-40 17.908-40 40s17.908 40 40 40c.716 0 1.427-.021 2.132-.059-1.714-.945-2.957-2.3-3.464-4.004-1.413-4.762 3.406-10.389 10.763-12.572 7.356-2.183 14.467-.095 15.879 4.666.272.922.309 1.874.141 2.828 8.888-7.337 14.551-18.438 14.551-30.859-.002-22.092-17.911-40-40.002-40zm-8.067 27.203c-7.357 2.185-14.467.096-15.881-4.664-1.412-4.762 3.405-10.391 10.764-12.574 7.358-2.182 14.467-.094 15.879 4.666 1.412 4.762-3.404 10.39-10.762 12.572z"/></svg>