<svg xmlns="http://www.w3.org/2000/svg" viewBox="0 0 313.674 313.674"><path d="M128.172 171.457L274.747 7.442c8.209-9.186 22.303-9.975 31.486-1.772 9.183 8.209 9.973 22.303 1.768 31.486a22.9 22.9 0 0 1-1.77 1.769L142.214 185.5c-4.096 3.66-10.383 3.309-14.042-.789-3.41-3.814-3.335-9.529 0-13.254z" fill="#d1d3d3"/><path d="M293.049 20.623a1.086 1.086 0 0 1 0 1.537l-133.17 133.169a1.084 1.084 0 1 1-1.534-1.535l133.17-133.17a1.085 1.085 0 0 1 1.534-.001zm7.442 7.442l.022.021a1.088 1.088 0 0 1-.043 1.537l-136.891 129.45a1.086 1.086 0 0 1-1.492-1.58l136.89-129.448a1.084 1.084 0 0 1 1.514.02zm-14.883-14.883c.414.414.426 1.086.022 1.514l-129.45 136.89c-.412.438-1.1.455-1.535.043-.421-.441-.455-1.098-.043-1.533L284.049 13.204a1.087 1.087 0 0 1 1.536-.045l.023.023z" fill="#c3c6c8"/><path d="M140.587 239.916L69.34 311.163a8.573 8.573 0 0 1-12.124 0 8.573 8.573 0 0 1-.001-12.125l52.584-52.584c1.688-1.688 1.688-4.422 0-6.109s-4.423-1.688-6.109 0l-52.584 52.582a8.572 8.572 0 0 1-12.125.002 8.576 8.576 0 0 1 0-12.127l52.584-52.582a4.32 4.32 0 1 0-6.109-6.109l-52.584 52.584a8.572 8.572 0 0 1-12.125-.002 8.572 8.572 0 0 1 0-12.125l52.583-52.584a4.32 4.32 0 0 0-6.109-6.109l-52.583 52.584a8.572 8.572 0 0 1-12.125 0 8.572 8.572 0 0 1 0-12.125l71.244-71.244c18.454-18.455 48.375-18.455 66.83-.002s18.453 48.375 0 66.828z" fill="#d1d3d3"/></svg>