<svg xmlns="http://www.w3.org/2000/svg" width="298.922" height="298.922" viewBox="0 0 298.922 298.922"><path d="M245.148 90.564c-23.804 0-49.591 6.771-67.29 17.668-7.166 4.417-13.732 7.853-19.49 10.201-4.442 1.81-13.367 1.805-17.81 0-5.758-2.349-12.319-5.784-19.493-10.206C103.366 97.33 77.586 90.56 53.783 90.56c-23.882 0-42.694 6.936-52.97 19.529l-.813.992.277 1.25c.085.389 2.19 9.121 11.936 13.505 1.808 17.706 11.172 72.231 58.073 81.169 4.723.896 9.362 1.357 13.797 1.357 22.724 0 36.671-11.651 44.363-21.417 11.312-14.364 15.234-31.794 14.603-45.026.09.005.171.041.261.041h12.303c.088 0 .166-.041.259-.041-.632 13.223 3.294 30.652 14.603 45.016 7.694 9.767 21.64 21.417 44.366 21.417h.011c4.422 0 9.062-.456 13.789-1.352 46.898-8.933 56.266-63.463 58.072-81.17 9.745-4.388 11.848-13.116 11.936-13.504l.274-1.251-.808-.991c-10.274-12.583-29.086-19.52-52.967-19.52zM116.51 181.032c-11.236 12.505-25.784 17.336-42.743 14.074-37.715-7.229-44.247-58.555-45.33-72.601 8.824-2.009 21.696-3.865 37.324-2.889C88.343 121.033 116.7 126 129.146 133.9c1.437.914 2.84 1.968 4.192 2.985.338 12.441-5.099 31.108-16.828 44.147zm109.215 14.074c-16.959 3.251-31.515-1.569-42.751-14.074-11.843-13.179-17.284-32.11-16.818-44.538 1.181-.891 2.387-1.796 3.635-2.594 12.438-7.899 40.793-12.867 63.38-14.284 15.959-.997 29.039.96 37.878 3.024-1.114 14.241-7.69 65.257-45.324 72.466z"/></svg>