<svg xmlns="http://www.w3.org/2000/svg" viewBox="0 0 511.999 511.999"><path d="M388.388 318.721h-264.81a8.827 8.827 0 0 1-8.827-8.827v-8.827a8.827 8.827 0 0 1 8.827-8.827h264.81a8.827 8.827 0 0 1 8.827 8.827v8.827a8.827 8.827 0 0 1-8.827 8.827z" fill="#9b5f50"/><path d="M388.405 318.721h-264.81L7.527 325.069c-7.489.409-10.321 8.879-4.166 12.634 41.2 25.135 138.77 42.809 252.639 42.809s211.439-17.674 252.639-42.809c6.155-3.755 3.322-12.223-4.166-12.634l-116.068-6.348zm-77.564-186.514l-54.858 9.975-54.858-9.975c-23.514-4.276-46.16 10.943-51.083 34.33L123.578 292.24h264.81l-26.463-125.702c-4.925-23.387-27.569-38.606-51.084-34.331z" fill="#b9785f"/><path d="M239.091 139.11l-37.967-6.903c-23.515-4.276-46.16 10.943-51.083 34.331L123.578 292.24h70.616l26.463-125.702c2.45-11.633 9.292-21.231 18.434-27.428z" fill="#af6958"/><path d="M185.367 309.894v-8.827a8.827 8.827 0 0 1 8.827-8.827h-70.616a8.827 8.827 0 0 0-8.827 8.827v8.827a8.827 8.827 0 0 0 8.827 8.827h70.616a8.827 8.827 0 0 1-8.827-8.827z" fill="#915546"/></svg>