<svg xmlns="http://www.w3.org/2000/svg" width="60.08" height="60.08" viewBox="0 0 60.08 60.08"><path d="M30.04 21.167c-2.9-1.308-6.177-1.905-9.572-1.682l.012-.007s-5.357.303-10.438 1.906c-1.81.571-1.978.975-1.451 1.26-1.314.619-2.618 1.349-3.815 2.227-2.834 2.076-2.19 2.302-.781 1.987l-.081.04s.634-.093-3.074 2.503c-1.571 1.1-.736 1.748.85 1.925a23.835 23.835 0 0 0-1.282 2.472c-.397.91-.002 2.057.842 2.437.434.194.878.368 1.328.531-.423.837-.209 1.729 1.627 2.412 2.264.841 4.364-.066 5.947-1.24.07-.002.142-.002.212-.006-1.044 1.459-1.47 2.885 1.078 2.691 3.031-.229 6.447-3.147 8.695-5.441.126-.068.245-.144.37-.214-1.034 1.444-1.649 2.809.523 1.99 4.052-1.527 8.208-10.311 8.208-10.311l-.016.005c.292-.469.561-.948.819-1.434.258.484.526.965.818 1.434l-.015-.005s4.155 8.783 8.208 10.311c2.17.818 1.556-.546.522-1.99.124.07.243.146.369.214 2.249 2.294 5.665 5.212 8.694 5.441 2.549.193 2.122-1.232 1.078-2.691.071.004.143.004.213.006 1.584 1.174 3.684 2.081 5.947 1.24 1.836-.683 2.052-1.575 1.626-2.412.451-.164.896-.337 1.329-.531.844-.38 1.238-1.526.842-2.437a23.835 23.835 0 0 0-1.282-2.472c1.586-.178 2.422-.826.849-1.925-3.707-2.596-3.074-2.503-3.074-2.503l-.081-.04c1.41.315 2.052.089-.781-1.987-1.196-.877-2.5-1.607-3.814-2.227.528-.285.358-.689-1.45-1.26-5.083-1.603-10.439-1.906-10.439-1.906l.012.007c-3.396-.225-6.673.373-9.572 1.682z"/></svg>