<svg xmlns="http://www.w3.org/2000/svg" width="512" height="512" viewBox="0 0 64.1 64.1"><path d="M60.671 41.797c-1.894 0-3.429 1.322-3.429 2.952 0 .64.242 1.229.646 1.713-7.303-3.592-1.789-14.07.275-19.42 2.356-6.106-2.784-11.484-12.209-11.484-8.271 0-12.91 4.363-13.923 5.433-1.013-1.07-5.653-5.433-13.923-5.433-9.425 0-14.565 5.379-12.209 11.484 2.056 5.329 7.537 15.754.351 19.38a2.664 2.664 0 0 0 .608-1.673c0-1.631-1.535-2.952-3.429-2.952S0 43.118 0 44.749c0 1.294.975 2.382 2.323 2.779-.023.004-.043.008-.065.01 0 0 12.637 3.345 19.278-2.179 5.764-4.796 9.585-5.975 10.496-6.203.911.229 4.733 1.407 10.496 6.203 6.641 5.523 19.278 2.179 19.278 2.179l-.043-.006c1.355-.393 2.338-1.485 2.338-2.783-.001-1.631-1.536-2.952-3.43-2.952z" fill="#401D10"/></svg>