<svg xmlns="http://www.w3.org/2000/svg" width="429.434" height="429.434" viewBox="0 0 429.434 429.434"><path d="M341.452 109.825l-2.989-.042c-26.562 0-51.135 10.487-73.152 31.28-9.185 8.666-23.066 21.76-32.528 24.984-6.548 2.216-12.629 3.362-18.039 3.4-5.462-.038-11.554-1.176-18.078-3.4-9.525-3.232-23.427-16.368-32.667-25.096-21.911-20.681-46.488-31.168-73.102-31.168l-2.998.05c-29.619.932-52.397 9.748-67.679 26.218C6.168 151.22-.977 173.004.107 197.388 1.727 234.147 14.52 319.65 98.133 319.65c61.643-.024 85.342-64.436 93.994-102.847a36.95 36.95 0 0 0 .613-3.677c.234-.95 2.841-5.673 7.544-8.578 4.39-2.695 9.253-4.083 14.383-4.13 5.206.046 10.062 1.435 14.444 4.13 4.729 2.914 7.33 7.628 7.534 8.428.169 1.368.369 2.657.638 3.841 8.647 38.397 32.319 102.809 93.941 102.833 83.672 0 96.476-85.503 98.103-122.263 1.077-24.392-6.071-46.174-20.134-61.336-15.28-16.478-38.047-25.302-67.741-26.226zM172.735 212.452c-7.348 32.596-26.81 87.29-74.554 87.314h-.048c-66.413 0-76.796-72.218-78.181-103.264-.587-13.481 1.499-32.562 14.846-46.937 11.539-12.427 29.604-19.116 53.657-19.871l2.519-.038c34.652.014 59.648 23.175 74.516 42.609 6.36 8.292 9.522 30.022 7.245 40.187zm236.719-15.95c-1.358 31.046-11.674 103.264-78.165 103.264h-.064c-47.768-.024-67.208-54.71-74.538-87.314-2.284-10.157.866-31.887 7.237-40.195 14.855-19.426 39.858-42.595 74.511-42.601l2.46.03c24.117.763 42.194 7.444 53.716 19.871 13.356 14.413 15.44 33.48 14.843 46.945z"/></svg>