<svg xmlns="http://www.w3.org/2000/svg" viewBox="0 0 482.039 482.039"><path d="M481.773 211.922a4.02 4.02 0 0 1-1.04 4.4l-33.73 30.79 33.73 30.8a4.011 4.011 0 0 1 1.04 4.4 4 4 0 0 1-3.73 2.55h-89.03v32c0 2.21-1.79 4-4 4h-47.71c2.36 8.43 3.58 17.11 3.58 25.86 0 15.57-3.9 31.1-11.26 44.91-.5.94-1.35 1.64-2.37 1.95a4 4 0 0 1-3.04-.3c-26.16-13.95-44.1-38.88-49.18-67.75l-34.01 34.01-34.01-34.01c-5.08 28.87-23.02 53.8-49.18 67.75a4.03 4.03 0 0 1-3.05.3 4.006 4.006 0 0 1-2.36-1.95c-7.37-13.81-11.26-29.34-11.26-44.91 0-8.75 1.21-17.43 3.58-25.86h-47.72c-2.21 0-4-1.79-4-4v-32H4.003a3.99 3.99 0 0 1-3.73-2.55 3.99 3.99 0 0 1 1.03-4.4l33.73-30.8-33.73-30.79a3.999 3.999 0 0 1-1.03-4.4 4 4 0 0 1 3.73-2.56h70.49c-15.39-10.36-27.88-24.68-35.9-41.46-3.88-8.11-6.7-16.75-8.39-25.69-.41-2.17 1.01-4.27 3.18-4.68 9.15-1.73 18.42-2.22 27.65-1.49-5.19-14.01-7.49-28.76-6.83-43.93.05-1.06.51-2.06 1.29-2.78.79-.71 1.82-1.09 2.88-1.04a112.713 112.713 0 0 1 81.31 40.05c13.69-10.18 30.22-15.68 47.6-15.68 20.06 0 38.99 7.34 53.74 20.74 14.74-13.4 33.67-20.74 53.74-20.74 17.37 0 33.9 5.5 47.6 15.68a112.692 112.692 0 0 1 81.3-40.05c1.07-.05 2.1.33 2.88 1.04.78.72 1.25 1.72 1.29 2.78.66 15.17-1.63 29.92-6.82 43.93 9.22-.73 18.49-.24 27.64 1.49a4.01 4.01 0 0 1 3.19 4.68c-1.7 8.94-4.52 17.58-8.39 25.69-8.03 16.78-20.52 31.1-35.9 41.46h70.49a4.01 4.01 0 0 1 3.73 2.56zm-43.4 32.24l29.35-26.8h-96.85c-.99 3.04-2.14 6.01-3.48 8.91l20.43 20.25c.73.72 1.19 1.73 1.19 2.84v27.5h78.71l-29.35-26.79c-.83-.76-1.3-1.83-1.3-2.96 0-1.12.47-2.19 1.3-2.95zm-2.14-79.71a96.623 96.623 0 0 0 6.9-19.74 96.35 96.35 0 0 0-27.76-.01c-16.67 2.43-32.45 9.25-45.74 19.72a80.121 80.121 0 0 1 5.13 28.24c0 5.68-.61 11.27-1.76 16.7h18.61c19.48-9.54 35.31-25.44 44.62-44.91zm-24.25-27.3c5.37-12.92 8.05-26.55 7.96-40.61a104.698 104.698 0 0 0-71.41 36.89c.95.86 1.88 1.75 2.79 2.66a79.845 79.845 0 0 1 14.99 20.76 104.472 104.472 0 0 1 45.67-19.7zm-30.97 175.71v-59.5h-279.99v59.5h279.99zm-26.09-67.5h20.37l-11.8-11.7a79.924 79.924 0 0 1-8.57 11.7zm11.84-52.7c0-5.59-.66-11.08-1.89-16.4l-27.54 19.5c-27.52 19.5-62.57 23.47-93.76 10.63-31.53-12.99-68.38-6.73-93.86 15.93l-18.06 16.06c1.48 1.79 3.05 3.53 4.72 5.19l1.78 1.79h205.73l1.79-1.79c13.6-13.6 21.09-31.68 21.09-50.91zm-34.05-3.42l29.78-21.1c-3.55-9.81-9.23-18.8-16.82-26.39-13.6-13.6-31.68-21.09-50.91-21.09-19.24 0-37.32 7.49-50.91 21.09l-2.83 2.83-2.83-2.83c-13.6-13.6-31.68-21.09-50.91-21.09-19.24 0-37.32 7.49-50.91 21.09-13.6 13.6-21.09 31.68-21.09 50.91 0 14.15 4.06 27.66 11.62 39.24l17.49-15.56a97.845 97.845 0 0 1 48.63-23.34c18.09-3.06 36.63-1 53.6 5.99 28.63 11.79 60.82 8.15 86.09-9.75zm.17 157.48c0-8.77-1.33-17.45-3.91-25.86h-46.58c3.65 26.49 19.03 49.7 42.01 63.35 5.56-11.71 8.48-24.59 8.48-37.49zm-91.86 1.5l27.36-27.36h-54.73l27.37 27.36zm-41.38-27.36h-46.57a87.693 87.693 0 0 0-3.91 25.86c0 12.9 2.92 25.78 8.47 37.49 22.99-13.65 38.37-36.86 42.01-63.35zm-68.93-184.77c.91-.91 1.84-1.8 2.79-2.66a104.677 104.677 0 0 0-71.41-36.89c-.08 14.06 2.59 27.69 7.97 40.61 16.54 2.78 32.22 9.54 45.66 19.7 3.8-7.58 8.82-14.59 14.99-20.76zm-23.96 109.27h20.36a80.591 80.591 0 0 1-8.56-11.7l-11.8 11.7zm-12.53 1.15l20.43-20.24c-1.35-2.9-2.5-5.87-3.48-8.91h-96.86l29.35 26.8c.83.76 1.31 1.83 1.31 2.95 0 1.13-.48 2.2-1.31 2.96l-29.35 26.79h78.71v-27.5c0-1.12.46-2.12 1.2-2.85zm-3.8-37.15h18.61a80.56 80.56 0 0 1-1.75-16.7c0-9.8 1.77-19.33 5.13-28.24-13.3-10.47-29.08-17.29-45.75-19.72a95.996 95.996 0 0 0-27.76.01 96.055 96.055 0 0 0 6.91 19.74c9.31 19.47 25.13 35.37 44.61 44.91z"/><linearGradient id="a" gradientUnits="userSpaceOnUse" x1="467.723" y1="247.112" x2="367.393" y2="247.112"><stop offset="0" stop-color="#eddbbe"/><stop offset=".116" stop-color="#e9d5b9"/><stop offset=".266" stop-color="#dcc5ab"/><stop offset=".434" stop-color="#c8ab95"/><stop offset=".56" stop-color="#b59280"/><stop offset=".62" stop-color="#a28373"/><stop offset=".742" stop-color="#715b50"/><stop offset=".913" stop-color="#231c19"/><stop offset=".985"/></linearGradient><path d="M467.723 217.362l-29.35 26.8c-.83.76-1.3 1.83-1.3 2.95 0 1.13.47 2.2 1.3 2.96l29.35 26.79h-78.71v-27.5c0-1.11-.46-2.12-1.19-2.84l-20.43-20.25c1.34-2.9 2.49-5.87 3.48-8.91h96.85z" fill="url(#a)"/><linearGradient id="b" gradientUnits="userSpaceOnUse" x1="406.383" y1="143.702" x2="406.383" y2="209.362"><stop offset="0" stop-color="#9dd401"/><stop offset=".189" stop-color="#9bd101"/><stop offset=".331" stop-color="#94c701"/><stop offset=".458" stop-color="#88b701"/><stop offset=".575" stop-color="#77a001"/><stop offset=".687" stop-color="#618301"/><stop offset=".793" stop-color="#465f00"/><stop offset=".896" stop-color="#263400"/><stop offset=".994" stop-color="#020300"/><stop offset="1"/></linearGradient><path d="M443.133 144.712a96.623 96.623 0 0 1-6.9 19.74c-9.31 19.47-25.14 35.37-44.62 44.91h-18.61a80.564 80.564 0 0 0 1.76-16.7c0-9.8-1.78-19.33-5.13-28.24 13.29-10.47 29.07-17.29 45.74-19.72a96.35 96.35 0 0 1 27.76.01z" fill="url(#b)"/><linearGradient id="c" gradientUnits="userSpaceOnUse" x1="384.239" y1="96.542" x2="384.239" y2="156.852"><stop offset="0" stop-color="#9dd401"/><stop offset=".189" stop-color="#9bd101"/><stop offset=".331" stop-color="#94c701"/><stop offset=".458" stop-color="#88b701"/><stop offset=".575" stop-color="#77a001"/><stop offset=".687" stop-color="#618301"/><stop offset=".793" stop-color="#465f00"/><stop offset=".896" stop-color="#263400"/><stop offset=".994" stop-color="#020300"/><stop offset="1"/></linearGradient><path d="M419.943 96.542c.09 14.06-2.59 27.69-7.96 40.61a104.472 104.472 0 0 0-45.67 19.7 79.845 79.845 0 0 0-14.99-20.76c-.91-.91-1.84-1.8-2.79-2.66a104.698 104.698 0 0 1 71.41-36.89z" fill="url(#c)"/><linearGradient id="d" gradientUnits="userSpaceOnUse" x1="241.018" y1="312.862" x2="241.018" y2="253.362"><stop offset="0" stop-color="#eddbbe"/><stop offset=".207" stop-color="#e9d5b9"/><stop offset=".475" stop-color="#dcc5ab"/><stop offset=".775" stop-color="#c8ab95"/><stop offset="1" stop-color="#b59280"/></linearGradient><path d="M381.013 253.362v59.5h-279.99v-59.5h279.99zm-37.73 46.41v-4.5c0-2.21-1.79-4-4-4s-4 1.79-4 4v.5h-12.91v-8h9.91c2.21 0 4-1.79 4-4s-1.79-4-4-4h-9.91v-8h12.91v.5c0 2.21 1.79 4 4 4s4-1.79 4-4v-4.5c0-2.21-1.79-4-4-4h-20.91c-2.21 0-4 1.79-4 4v32c0 2.21 1.79 4 4 4h20.91c2.21 0 4-1.79 4-4zm-49.2-32c0-2.21-1.79-4-4-4h-10.5a4.001 4.001 0 1 0-.85 7.91l-9.57 19.15-9.64-19.28c1.6-.52 2.76-2.01 2.76-3.78 0-2.21-1.79-4-4-4h-10.5c-2.21 0-4 1.79-4 4s1.79 4 4 4h2.91l14.89 29.79a3.99 3.99 0 0 0 3.58 2.21c1.51 0 2.9-.85 3.58-2.21l14.89-29.79h2.45c2.21 0 4-1.79 4-4zm-67.57 16c0-11.03-8.97-20-20-20s-20 8.97-20 20 8.97 20 20 20 20-8.97 20-20zm-62.23 16v-6.5c0-2.21-1.79-4-4-4s-4 1.79-4 4v2.5h-12.91v-28c0-2.21-1.79-4-4-4s-4 1.79-4 4v32c0 2.21 1.79 4 4 4h20.91c2.21 0 4-1.79 4-4z" fill="url(#d)"/><linearGradient id="e" gradientUnits="userSpaceOnUse" x1="365.108" y1="245.362" x2="365.108" y2="233.662"><stop offset="0" stop-color="#515151"/><stop offset="1"/></linearGradient><path d="M375.293 245.362h-20.37c3.23-3.67 6.1-7.58 8.57-11.7l11.8 11.7z" fill="url(#e)"/><linearGradient id="f" gradientUnits="userSpaceOnUse" x1="366.763" y1="210.812" x2="131.653" y2="210.812"><stop offset="0" stop-color="#ed1c24"/><stop offset=".127" stop-color="#e71b23"/><stop offset=".291" stop-color="#d71921"/><stop offset=".476" stop-color="#bd161d"/><stop offset=".675" stop-color="#971217"/><stop offset=".885" stop-color="#680c10"/><stop offset="1" stop-color="#4b090b"/></linearGradient><path d="M364.873 176.262a72.744 72.744 0 0 1 1.89 16.4c0 19.23-7.49 37.31-21.09 50.91l-1.79 1.79h-205.73l-1.78-1.79c-1.67-1.66-3.24-3.4-4.72-5.19l18.06-16.06c25.48-22.66 62.33-28.92 93.86-15.93 31.19 12.84 66.24 8.87 93.76-10.63l27.54-19.5z" fill="url(#f)"/><linearGradient id="g" gradientUnits="userSpaceOnUse" x1="115.283" y1="176.282" x2="362.493" y2="176.282"><stop offset="0" stop-color="#ed1c24"/><stop offset=".127" stop-color="#e71b23"/><stop offset=".291" stop-color="#d71921"/><stop offset=".476" stop-color="#bd161d"/><stop offset=".675" stop-color="#971217"/><stop offset=".885" stop-color="#680c10"/><stop offset="1" stop-color="#4b090b"/></linearGradient><path d="M362.493 168.142l-29.78 21.1c-25.27 17.9-57.46 21.54-86.09 9.75a97.781 97.781 0 0 0-53.6-5.99 97.845 97.845 0 0 0-48.63 23.34l-17.49 15.56c-7.56-11.58-11.62-25.09-11.62-39.24 0-19.23 7.49-37.31 21.09-50.91 13.59-13.6 31.67-21.09 50.91-21.09 19.23 0 37.31 7.49 50.91 21.09l2.83 2.83 2.83-2.83c13.59-13.6 31.67-21.09 50.91-21.09 19.23 0 37.31 7.49 50.91 21.09 7.59 7.59 13.27 16.58 16.82 26.39z" fill="url(#g)"/><path d="M343.283 295.272v4.5c0 2.21-1.79 4-4 4h-20.91c-2.21 0-4-1.79-4-4v-32c0-2.21 1.79-4 4-4h20.91c2.21 0 4 1.79 4 4v4.5c0 2.21-1.79 4-4 4s-4-1.79-4-4v-.5h-12.91v8h9.91c2.21 0 4 1.79 4 4s-1.79 4-4 4h-9.91v8h12.91v-.5c0-2.21 1.79-4 4-4s4 1.79 4 4z"/><linearGradient id="h" gradientUnits="userSpaceOnUse" x1="307.638" y1="384.212" x2="307.638" y2="320.862"><stop offset="0" stop-color="#9dd401"/><stop offset=".189" stop-color="#9bd101"/><stop offset=".331" stop-color="#94c701"/><stop offset=".458" stop-color="#88b701"/><stop offset=".575" stop-color="#77a001"/><stop offset=".687" stop-color="#618301"/><stop offset=".793" stop-color="#465f00"/><stop offset=".896" stop-color="#263400"/><stop offset=".994" stop-color="#020300"/><stop offset="1"/></linearGradient><path d="M328.973 320.862c2.58 8.41 3.91 17.09 3.91 25.86 0 12.9-2.92 25.78-8.48 37.49-22.98-13.65-38.36-36.86-42.01-63.35h46.58z" fill="url(#h)"/><path d="M290.083 263.772c2.21 0 4 1.79 4 4s-1.79 4-4 4h-2.45l-14.89 29.79a4.002 4.002 0 0 1-3.58 2.21c-1.52 0-2.9-.85-3.58-2.21l-14.89-29.79h-2.91c-2.21 0-4-1.79-4-4s1.79-4 4-4h10.5c2.21 0 4 1.79 4 4 0 1.77-1.16 3.26-2.76 3.78l9.64 19.28 9.57-19.15a4.001 4.001 0 0 1 .85-7.91h10.5z"/><linearGradient id="i" gradientUnits="userSpaceOnUse" x1="213.653" y1="334.542" x2="268.383" y2="334.542"><stop offset="0" stop-color="#ed1c24"/><stop offset=".127" stop-color="#e71b23"/><stop offset=".291" stop-color="#d71921"/><stop offset=".476" stop-color="#bd161d"/><stop offset=".675" stop-color="#971217"/><stop offset=".885" stop-color="#680c10"/><stop offset="1" stop-color="#4b090b"/></linearGradient><path fill="url(#i)" d="M268.383 320.862l-27.36 27.36-27.37-27.36z"/><path d="M206.513 263.772c11.03 0 20 8.97 20 20s-8.97 20-20 20-20-8.97-20-20 8.97-20 20-20zm12 20c0-6.62-5.38-12-12-12-6.61 0-12 5.38-12 12s5.39 12 12 12c6.62 0 12-5.38 12-12z"/><linearGradient id="j" gradientUnits="userSpaceOnUse" x1="206.513" y1="295.772" x2="206.513" y2="271.772"><stop offset="0" stop-color="#eddbbe"/><stop offset=".394" stop-color="#ebd8bc"/><stop offset=".635" stop-color="#e4d0b4"/><stop offset=".835" stop-color="#d9c2a8"/><stop offset="1" stop-color="#cbaf98"/></linearGradient><path d="M206.513 271.772c6.62 0 12 5.38 12 12s-5.38 12-12 12c-6.61 0-12-5.38-12-12s5.39-12 12-12z" fill="url(#j)"/><linearGradient id="k" gradientUnits="userSpaceOnUse" x1="174.403" y1="384.212" x2="174.403" y2="320.862"><stop offset="0" stop-color="#9dd401"/><stop offset=".189" stop-color="#9bd101"/><stop offset=".331" stop-color="#94c701"/><stop offset=".458" stop-color="#88b701"/><stop offset=".575" stop-color="#77a001"/><stop offset=".687" stop-color="#618301"/><stop offset=".793" stop-color="#465f00"/><stop offset=".896" stop-color="#263400"/><stop offset=".994" stop-color="#020300"/><stop offset="1"/></linearGradient><path d="M153.073 320.862h46.57c-3.64 26.49-19.02 49.7-42.01 63.35-5.55-11.71-8.47-24.59-8.47-37.49 0-8.77 1.32-17.45 3.91-25.86z" fill="url(#k)"/><path d="M164.283 293.272v6.5c0 2.21-1.79 4-4 4h-20.91c-2.21 0-4-1.79-4-4v-32c0-2.21 1.79-4 4-4s4 1.79 4 4v28h12.91v-2.5c0-2.21 1.79-4 4-4s4 1.79 4 4z"/><linearGradient id="l" gradientUnits="userSpaceOnUse" x1="97.797" y1="96.542" x2="97.797" y2="156.852"><stop offset="0" stop-color="#9dd401"/><stop offset=".189" stop-color="#9bd101"/><stop offset=".331" stop-color="#94c701"/><stop offset=".458" stop-color="#88b701"/><stop offset=".575" stop-color="#77a001"/><stop offset=".687" stop-color="#618301"/><stop offset=".793" stop-color="#465f00"/><stop offset=".896" stop-color="#263400"/><stop offset=".994" stop-color="#020300"/><stop offset="1"/></linearGradient><path d="M133.503 133.432c-.95.86-1.88 1.75-2.79 2.66a80.077 80.077 0 0 0-14.99 20.76 104.484 104.484 0 0 0-45.66-19.7c-5.38-12.92-8.05-26.55-7.97-40.61 27.75 2.3 53.45 15.57 71.41 36.89z" fill="url(#l)"/><linearGradient id="m" gradientUnits="userSpaceOnUse" x1="116.933" y1="245.362" x2="116.933" y2="233.662"><stop offset="0" stop-color="#515151"/><stop offset="1"/></linearGradient><path d="M127.113 245.362h-20.36l11.8-11.7c2.47 4.12 5.34 8.03 8.56 11.7z" fill="url(#m)"/><linearGradient id="n" gradientUnits="userSpaceOnUse" x1="14.313" y1="247.112" x2="114.653" y2="247.112"><stop offset="0" stop-color="#eddbbe"/><stop offset=".116" stop-color="#e9d5b9"/><stop offset=".266" stop-color="#dcc5ab"/><stop offset=".434" stop-color="#c8ab95"/><stop offset=".56" stop-color="#b59280"/><stop offset=".62" stop-color="#a28373"/><stop offset=".742" stop-color="#715b50"/><stop offset=".913" stop-color="#231c19"/><stop offset=".985"/></linearGradient><path d="M114.653 226.272l-20.43 20.24a3.98 3.98 0 0 0-1.2 2.85v27.5h-78.71l29.35-26.79c.83-.76 1.31-1.83 1.31-2.96 0-1.12-.48-2.19-1.31-2.95l-29.35-26.8h96.86c.98 3.04 2.13 6.01 3.48 8.91z" fill="url(#n)"/><linearGradient id="o" gradientUnits="userSpaceOnUse" x1="75.658" y1="143.698" x2="75.658" y2="209.362"><stop offset="0" stop-color="#9dd401"/><stop offset=".189" stop-color="#9bd101"/><stop offset=".331" stop-color="#94c701"/><stop offset=".458" stop-color="#88b701"/><stop offset=".575" stop-color="#77a001"/><stop offset=".687" stop-color="#618301"/><stop offset=".793" stop-color="#465f00"/><stop offset=".896" stop-color="#263400"/><stop offset=".994" stop-color="#020300"/><stop offset="1"/></linearGradient><path d="M109.033 209.362h-18.61c-19.48-9.54-35.3-25.44-44.61-44.91-3-6.27-5.32-12.89-6.91-19.74a95.996 95.996 0 0 1 27.76-.01c16.67 2.43 32.45 9.25 45.75 19.72a79.897 79.897 0 0 0-5.13 28.24c0 5.68.6 11.27 1.75 16.7z" fill="url(#o)"/></svg>