<svg xmlns="http://www.w3.org/2000/svg" viewBox="0 0 416.92 416.92"><path fill="#7ab9e8" d="M296.708 84.58L84.58 296.71l-49.497-49.497L247.212 35.084z"/><path fill="#61aae4" d="M116.534 272.098L88.25 300.383l-49.496-49.496 28.285-28.285z"/><path fill="#98c8ed" d="M300.383 88.252l-28.285 28.285-49.496-49.496 28.285-28.285z"/><path d="M242.393 30.265l.002-.002C195.533-16.598 111.619-8.663 51.478 51.476c-60.142 60.142-68.077 144.057-21.215 190.92l14.143 14.142L256.537 44.406l-14.142-14.143-.002.002z" fill="#ebe4dd"/><path d="M242.401 30.269l-.002.002.002-.002C208.725-3.407 155.916-8.784 106.544 13.172c38.055-.672 75.787 13.595 104.543 42.351l17.172 17.172 28.284-28.283-14.142-14.143z" fill="#efecea"/><path d="M13.172 106.544C-8.785 155.916-3.407 208.725 30.269 242.402l14.143 14.141 28.284-28.283-17.173-17.173c-28.756-28.756-43.024-66.489-42.351-104.543z" fill="#d8ccbc"/><path d="M332.065 35.08c23.434-23.43 61.423-23.429 84.854.002L35.08 416.918c-23.432-23.431-23.429-61.422.002-84.853L332.065 35.08zm56.571 28.294l28.284-28.285z" fill="#ebe4dd"/><path fill="#ebe4dd" d="M332.071 35.076l-.006.004-28.278 28.279.004-.004z"/><path d="M388.635 63.367l28.284-28.285c-23.43-23.43-61.415-23.432-84.849-.006l-28.279 28.279c23.435-23.421 61.416-23.416 84.844.012z" fill="#efecea"/><path d="M63.365 388.634c-23.432-23.432-23.429-61.422.002-84.853L303.791 63.355a.022.022 0 0 1-.005.004L35.082 332.066c-23.431 23.431-23.434 61.422-.002 84.853L388.635 63.367 63.365 388.634z" fill="#d8ccbc"/></svg>