<svg xmlns="http://www.w3.org/2000/svg" width="436.141" height="436.141" viewBox="0 0 436.141 436.141"><path d="M107.359 73.07c-29.293 0-56.619 15.509-76.936 43.67C10.804 143.931 0 179.917 0 218.07c0 38.152 10.805 74.141 30.424 101.33 20.316 28.162 47.642 43.67 76.935 43.67 29.297 0 56.619-15.508 76.939-43.67 19.618-27.189 30.421-63.178 30.421-101.33 0-38.153-10.803-74.139-30.421-101.33-20.32-28.161-47.642-43.67-76.939-43.67zm60.977 234.815c-16.521 22.893-38.174 35.502-60.977 35.502-22.803 0-44.455-12.609-60.976-35.502-17.218-23.869-26.701-55.762-26.701-89.814 0-34.052 9.482-65.949 26.701-89.813 16.521-22.895 38.173-35.504 60.976-35.504 22.803 0 44.456 12.609 60.977 35.504 17.219 23.864 26.701 55.761 26.701 89.813s-9.483 65.945-26.701 89.814z"/><path d="M107.359 168.863c-27.175 0-49.205 22.029-49.205 49.208 0 15.281 6.968 28.937 17.898 37.963-.205-1.174-.164-2.348.176-3.479 1.736-5.856 10.479-8.424 19.532-5.737 9.05 2.683 14.978 9.608 13.238 15.465-.622 2.097-2.151 3.763-4.261 4.925.867.045 1.742.07 2.621.07 27.179 0 49.209-22.031 49.209-49.205.001-27.179-22.029-49.21-49.208-49.21zm29.46 27.728c-1.74 5.856-10.485 8.425-19.534 5.74-9.052-2.687-14.979-9.611-13.24-15.467 1.738-5.857 10.483-8.427 19.534-5.741 9.05 2.688 14.977 9.611 13.24 15.468zm268.898-79.851c-20.318-28.161-47.643-43.67-76.936-43.67-29.297 0-56.619 15.509-76.938 43.67-19.619 27.191-30.422 63.177-30.422 101.33 0 38.152 10.803 74.141 30.422 101.33 20.319 28.162 47.642 43.67 76.938 43.67 29.293 0 56.617-15.508 76.936-43.67 19.617-27.189 30.424-63.178 30.424-101.33 0-38.153-10.807-74.139-30.424-101.33zm-15.959 191.145c-16.521 22.893-38.176 35.502-60.977 35.502-22.803 0-44.457-12.609-60.978-35.502-17.219-23.869-26.7-55.763-26.7-89.814s9.481-65.949 26.7-89.813c16.521-22.895 38.175-35.504 60.978-35.504 22.801 0 44.455 12.609 60.977 35.504 17.217 23.864 26.699 55.761 26.699 89.813s-9.482 65.945-26.699 89.814z"/><path d="M328.781 168.863c-27.18 0-49.209 22.029-49.209 49.208 0 15.281 6.967 28.937 17.898 37.963-.203-1.174-.162-2.348.176-3.479 1.738-5.856 10.482-8.424 19.531-5.737 9.053 2.683 14.979 9.608 13.242 15.465-.623 2.097-2.152 3.763-4.264 4.925.869.045 1.744.07 2.623.07 27.174 0 49.205-22.031 49.205-49.205.003-27.179-22.028-49.21-49.202-49.21zm29.459 27.728c-1.74 5.856-10.484 8.425-19.537 5.74-9.049-2.687-14.979-9.611-13.236-15.467 1.736-5.857 10.482-8.427 19.529-5.741 9.053 2.688 14.979 9.611 13.244 15.468z"/></svg>