<svg xmlns="http://www.w3.org/2000/svg" width="402.889" height="402.889" viewBox="0 0 402.889 402.889"><path d="M386.862 107.558c-15.998-33.989-41.81-55.725-72.678-61.205-23.666-4.2-48.019 1.629-70.434 16.857-16.206 11.01-30.595 26.403-42.306 45.089-11.711-18.686-26.1-34.079-42.306-45.089-22.415-15.23-46.771-21.06-70.433-16.857-30.868 5.479-56.68 27.216-72.678 61.205C.632 140.266-3.863 180.722 3.371 221.474c7.233 40.754 25.377 77.191 51.088 102.604 22.369 22.108 48.241 33.785 74.186 33.785 5.044 0 10.092-.44 15.116-1.333 22.278-3.954 42.306-16.748 57.683-36.553 15.377 19.805 35.404 32.599 57.682 36.553a86.287 86.287 0 0 0 15.117 1.333c25.943-.001 51.816-11.679 74.187-33.785 25.711-25.411 43.854-61.85 51.088-102.603 7.233-40.753 2.738-81.209-12.656-113.917zM139.918 334.867c-23.63 4.2-48.495-5.191-69.992-26.438-22.503-22.239-38.446-54.486-44.891-90.801-6.445-36.312-2.575-72.075 10.899-100.702C48.805 89.581 68.913 72.21 92.551 68.014c35.771-6.346 73.282 18.333 96.669 63.14-7.107 15.727-12.294 32.603-15.428 50.254-7.572 42.66-2.113 85.419 14.943 118.525-12.601 19.222-29.755 31.551-48.817 34.934zm237.938-117.238c-6.444 36.313-22.388 68.561-44.892 90.8-21.494 21.245-46.352 30.634-69.992 26.438-20.72-3.677-39.188-17.915-52.003-40.093-16.995-29.409-22.649-69.328-15.515-109.521 3.112-17.533 8.458-34.181 15.886-49.48 23.171-47.724 62.04-74.319 98.997-67.759 23.64 4.196 43.747 21.567 56.618 48.913 13.476 28.626 17.346 64.389 10.901 100.702z"/><path d="M126.191 218.503c-27.028 0-48.938 21.91-48.938 48.938 0 15.2 6.93 28.779 17.802 37.757-.204-1.168-.162-2.334.173-3.461 1.729-5.824 10.426-8.379 19.427-5.708s14.896 9.558 13.168 15.382c-.619 2.084-2.141 3.741-4.238 4.898.863.045 1.732.069 2.607.069 27.028 0 48.938-21.91 48.938-48.938 0-27.027-21.911-48.937-48.939-48.937zm29.298 27.575c-1.729 5.824-10.427 8.38-19.429 5.708-9-2.671-14.895-9.558-13.166-15.382s10.426-8.38 19.427-5.708c9.001 2.671 14.896 9.558 13.168 15.382zm106.703-27.575c-27.028 0-48.938 21.91-48.938 48.938 0 27.027 21.91 48.938 48.938 48.938.875 0 1.744-.024 2.606-.069-2.098-1.157-3.618-2.814-4.237-4.898-1.729-5.824 4.167-12.711 13.168-15.382 9-2.671 17.698-.116 19.427 5.708.335 1.127.377 2.293.173 3.461 10.872-8.978 17.802-22.557 17.802-37.757-.001-27.029-21.911-48.939-48.939-48.939zm-9.87 33.283c-9.001 2.672-17.699.116-19.428-5.708-1.729-5.824 4.167-12.711 13.167-15.382 9.002-2.672 17.699-.116 19.428 5.708 1.729 5.825-4.166 12.711-13.167 15.382z"/></svg>