<svg xmlns="http://www.w3.org/2000/svg" width="61.76" height="61.76" viewBox="0 0 61.76 61.76"><path d="M18.698 40.152c5.16 1.277 9.513.129 12.182-2.316 2.67 2.445 7.024 3.594 12.183 2.316 11.731-2.905 18.649 1.341 18.649 1.341.875-15.277-10.339-19.558-16.522-20.757a16.657 16.657 0 0 0-3.589-.457c-.216-.01-.344-.012-.344-.012-4.301 0-8.096 1.6-10.377 4.039-2.281-2.439-6.076-4.039-10.377-4.039 0 0-.129.002-.344.012-1.25.025-2.454.182-3.588.457-6.183 1.2-17.398 5.479-16.522 20.757-.001 0 6.917-4.245 18.649-1.341z"/></svg>