<svg xmlns="http://www.w3.org/2000/svg" viewBox="0 0 464.716 464.716"><path d="M120.031 232.913c0 1.369.009 2.72.039 4.069.671 39.33 10.691 72.021 2.48 113.701-3.649 18.51-10.89 38.79-24.139 62.22L67.5 390.132c3.61-6.03 6.66-11.93 9.229-17.729 19.821-44.61 11.22-82.751 7.451-119.76-.85-8.221-1.45-16.4-1.45-24.571 0-58.84 61.65-77.53 61.65-77.53h50.579s-74.928 23.53-74.928 82.371" fill="#a9d856"/><path d="M175.99 209.372c4.02 18.65 10 35.19 15.339 51.94 7.27 22.771 13.34 45.92 11.69 75.3h-.009c-.87 15.679-3.95 33.14-10.231 53.26l-35.009-15.75c2.48-7.32 4.34-14.36 5.66-21.15 6.989-35.689-.731-64.51-9.82-91.66-5.521-16.501-11.551-32.391-15.091-48.82-12.4-57.52 43.93-88.78 43.93-88.78l49.45-10.649c.001-.001-68.298 38.789-55.909 96.309" fill="#a9d856"/><path d="M445.618 256.851c32.478 9.127 22.148 56.088-20.491 56.088-56.693 0-130.533-43.785-255.392-14.921-101.677 23.504-51.978-54.355-30.02-84.076 5.061-6.849 13.473-10.357 21.906-9.167l228.562 32.278c1.623.229 3.217.629 4.756 1.195l50.679 18.603" fill="#e5c74a"/><path d="M236.071 51.812h-5.84c-54.529 0-98.734 44.205-98.734 98.734v31.829h203.306v-31.829c.001-54.529-44.204-98.734-98.732-98.734" fill="#ffde55"/><path d="M200.861 298.436c-11.394 3.854-23.053 7.227-35.751 9.749a146.12 146.12 0 0 1 1.027 17.133c.004 8.781-.809 17.964-2.707 27.653l39.58-16.359h.009c.187-3.328.275-6.577.273-9.753-.005-10.106-.917-19.489-2.431-28.423M89.305 311.848c-.076 19.081-3.029 39.069-12.575 60.554v.02l45.821-21.74c2.357-11.967 3.212-23.192 3.216-34.047 0-1.304-.011-2.605-.034-3.898-3.574.135-7.247.206-11.022.206-9.173-.001-17.624-.389-25.406-1.095" fill="#a0c858"/><path d="M447.96 257.852c-1.08-.23-34.8-7.339-63.731-5.53-142.219 8.889-166.93 60.62-269.52 60.62C12.13 312.942 0 264.442 0 264.442c3.01-1.151 5.99-2.36 8.97-3.63 64.57-27.3 122.531-78.44 122.531-78.44H334.8s60.12 55.859 113.16 75.48" fill="#ffde55"/><path fill="#a9d856" d="M334.804 146.004H131.498v36.371h203.306v-36.371"/><path d="M144.985 100.701a98.196 98.196 0 0 0-13.385 45.303c.746-16.476 5.529-31.897 13.385-45.303m.084-.143l-.04.068.04-.068m91.01-48.746h-5.841 6.136-.295" fill="#e9e9e9"/><path d="M236.071 51.812h-5.833c-36.291 0-68.01 19.575-85.169 48.746l-.04.068-.044.075c-7.856 13.406-12.639 28.827-13.385 45.303h55.5c1.987-43.947 32.694-80.396 73.798-91.042a98.773 98.773 0 0 0-3.179-.769 98.992 98.992 0 0 0-21.316-2.38h-.03l-.302-.001" fill="#e9cd57"/><path d="M187.101 146.004h-55.5a100.468 100.468 0 0 0-.103 4.538v31.831H187l-.001-31.831c0-1.521.034-3.034.102-4.538" fill="#a0c858"/><path d="M131.498 182.375c-.443.391-58.206 51.243-122.528 78.438-2.98 1.27-5.96 2.479-8.97 3.63 0 0 12.13 48.5 114.71 48.5 74.795-66.725 72.31-130.104 72.291-130.567h-55.503" fill="#e9cd57"/><path fill="#a0c858" d="M187 182.372h-55.499l-.003.003H187v-.003"/><path fill="#98ba5a" d="M187 182.372h-55.499 55.498"/></svg>